<?xml version="1.0" encoding="utf-8" standalone="no"?>
<!DOCTYPE svg PUBLIC "-//W3C//DTD SVG 1.1//EN"
  "http://www.w3.org/Graphics/SVG/1.1/DTD/svg11.dtd">
<!-- Created with matplotlib (https://matplotlib.org/) -->
<svg height="683.28pt" version="1.1" viewBox="0 0 1382.4 683.28" width="1382.4pt" xmlns="http://www.w3.org/2000/svg" xmlns:xlink="http://www.w3.org/1999/xlink">
 <defs>
  <style type="text/css">
*{stroke-linecap:butt;stroke-linejoin:round;}
  </style>
 </defs>
 <g id="figure_1">
  <g id="patch_1">
   <path d="M 0 683.28 
L 1382.4 683.28 
L 1382.4 0 
L 0 0 
z
" style="fill:#ffffff;"/>
  </g>
  <g id="axes_1">
   <g id="patch_2">
    <path d="M 172.8 608.1192 
L 1244.16 608.1192 
L 1244.16 81.9936 
L 172.8 81.9936 
z
" style="fill:#ffffff;"/>
   </g>
   <g id="patch_3">
    <path clip-path="url(#p70f099d989)" d="M 221.498182 608.1192 
L 234.527796 608.1192 
L 234.527796 547.777405 
L 221.498182 547.777405 
z
" style="fill:#1f77b4;"/>
   </g>
   <g id="patch_4">
    <path clip-path="url(#p70f099d989)" d="M 237.785199 608.1192 
L 250.814813 608.1192 
L 250.814813 526.148397 
L 237.785199 526.148397 
z
" style="fill:#1f77b4;"/>
   </g>
   <g id="patch_5">
    <path clip-path="url(#p70f099d989)" d="M 254.072216 608.1192 
L 267.10183 608.1192 
L 267.10183 477.248033 
L 254.072216 477.248033 
z
" style="fill:#1f77b4;"/>
   </g>
   <g id="patch_6">
    <path clip-path="url(#p70f099d989)" d="M 270.359234 608.1192 
L 283.388848 608.1192 
L 283.388848 516.274285 
L 270.359234 516.274285 
z
" style="fill:#1f77b4;"/>
   </g>
   <g id="patch_7">
    <path clip-path="url(#p70f099d989)" d="M 286.646251 608.1192 
L 299.675865 608.1192 
L 299.675865 515.490626 
L 286.646251 515.490626 
z
" style="fill:#1f77b4;"/>
   </g>
   <g id="patch_8">
    <path clip-path="url(#p70f099d989)" d="M 302.933268 608.1192 
L 315.962882 608.1192 
L 315.962882 414.711991 
L 302.933268 414.711991 
z
" style="fill:#1f77b4;"/>
   </g>
   <g id="patch_9">
    <path clip-path="url(#p70f099d989)" d="M 319.220286 608.1192 
L 332.2499 608.1192 
L 332.2499 439.475637 
L 319.220286 439.475637 
z
" style="fill:#1f77b4;"/>
   </g>
   <g id="patch_10">
    <path clip-path="url(#p70f099d989)" d="M 335.507303 608.1192 
L 348.536917 608.1192 
L 348.536917 491.667371 
L 335.507303 491.667371 
z
" style="fill:#1f77b4;"/>
   </g>
   <g id="patch_11">
    <path clip-path="url(#p70f099d989)" d="M 351.79432 608.1192 
L 364.823934 608.1192 
L 364.823934 514.863698 
L 351.79432 514.863698 
z
" style="fill:#1f77b4;"/>
   </g>
   <g id="patch_12">
    <path clip-path="url(#p70f099d989)" d="M 368.081338 608.1192 
L 381.110952 608.1192 
L 381.110952 470.038364 
L 368.081338 470.038364 
z
" style="fill:#1f77b4;"/>
   </g>
   <g id="patch_13">
    <path clip-path="url(#p70f099d989)" d="M 384.368355 608.1192 
L 397.397969 608.1192 
L 397.397969 457.970005 
L 384.368355 457.970005 
z
" style="fill:#1f77b4;"/>
   </g>
   <g id="patch_14">
    <path clip-path="url(#p70f099d989)" d="M 400.655372 608.1192 
L 413.684986 608.1192 
L 413.684986 439.632369 
L 400.655372 439.632369 
z
" style="fill:#1f77b4;"/>
   </g>
   <g id="patch_15">
    <path clip-path="url(#p70f099d989)" d="M 416.94239 608.1192 
L 429.972004 608.1192 
L 429.972004 406.091734 
L 416.94239 406.091734 
z
" style="fill:#1f77b4;"/>
   </g>
   <g id="patch_16">
    <path clip-path="url(#p70f099d989)" d="M 433.229407 608.1192 
L 446.259021 608.1192 
L 446.259021 394.180107 
L 433.229407 394.180107 
z
" style="fill:#1f77b4;"/>
   </g>
   <g id="patch_17">
    <path clip-path="url(#p70f099d989)" d="M 449.516424 608.1192 
L 462.546038 608.1192 
L 462.546038 418.630289 
L 449.516424 418.630289 
z
" style="fill:#1f77b4;"/>
   </g>
   <g id="patch_18">
    <path clip-path="url(#p70f099d989)" d="M 465.803442 608.1192 
L 478.833056 608.1192 
L 478.833056 443.080471 
L 465.803442 443.080471 
z
" style="fill:#1f77b4;"/>
   </g>
   <g id="patch_19">
    <path clip-path="url(#p70f099d989)" d="M 482.090459 608.1192 
L 495.120073 608.1192 
L 495.120073 423.488979 
L 482.090459 423.488979 
z
" style="fill:#1f77b4;"/>
   </g>
   <g id="patch_20">
    <path clip-path="url(#p70f099d989)" d="M 498.377476 608.1192 
L 511.40709 608.1192 
L 511.40709 421.294732 
L 498.377476 421.294732 
z
" style="fill:#1f77b4;"/>
   </g>
   <g id="patch_21">
    <path clip-path="url(#p70f099d989)" d="M 514.664494 608.1192 
L 527.694108 608.1192 
L 527.694108 444.177595 
L 514.664494 444.177595 
z
" style="fill:#1f77b4;"/>
   </g>
   <g id="patch_22">
    <path clip-path="url(#p70f099d989)" d="M 530.951511 608.1192 
L 543.981125 608.1192 
L 543.981125 414.241795 
L 530.951511 414.241795 
z
" style="fill:#1f77b4;"/>
   </g>
   <g id="patch_23">
    <path clip-path="url(#p70f099d989)" d="M 547.238528 608.1192 
L 560.268142 608.1192 
L 560.268142 456.71615 
L 547.238528 456.71615 
z
" style="fill:#1f77b4;"/>
   </g>
   <g id="patch_24">
    <path clip-path="url(#p70f099d989)" d="M 563.525546 608.1192 
L 576.55516 608.1192 
L 576.55516 446.99877 
L 563.525546 446.99877 
z
" style="fill:#1f77b4;"/>
   </g>
   <g id="patch_25">
    <path clip-path="url(#p70f099d989)" d="M 579.812563 608.1192 
L 592.842177 608.1192 
L 592.842177 386.970438 
L 579.812563 386.970438 
z
" style="fill:#1f77b4;"/>
   </g>
   <g id="patch_26">
    <path clip-path="url(#p70f099d989)" d="M 596.09958 608.1192 
L 609.129194 608.1192 
L 609.129194 331.957528 
L 596.09958 331.957528 
z
" style="fill:#1f77b4;"/>
   </g>
   <g id="patch_27">
    <path clip-path="url(#p70f099d989)" d="M 612.386598 608.1192 
L 625.416212 608.1192 
L 625.416212 262.368549 
L 612.386598 262.368549 
z
" style="fill:#1f77b4;"/>
   </g>
   <g id="patch_28">
    <path clip-path="url(#p70f099d989)" d="M 628.673615 608.1192 
L 641.703229 608.1192 
L 641.703229 233.686604 
L 628.673615 233.686604 
z
" style="fill:#1f77b4;"/>
   </g>
   <g id="patch_29">
    <path clip-path="url(#p70f099d989)" d="M 644.960632 608.1192 
L 657.990246 608.1192 
L 657.990246 149.521555 
L 644.960632 149.521555 
z
" style="fill:#1f77b4;"/>
   </g>
   <g id="patch_30">
    <path clip-path="url(#p70f099d989)" d="M 661.24765 608.1192 
L 674.277264 608.1192 
L 674.277264 126.011764 
L 661.24765 126.011764 
z
" style="fill:#1f77b4;"/>
   </g>
   <g id="patch_31">
    <path clip-path="url(#p70f099d989)" d="M 677.534667 608.1192 
L 690.564281 608.1192 
L 690.564281 153.439853 
L 677.534667 153.439853 
z
" style="fill:#1f77b4;"/>
   </g>
   <g id="patch_32">
    <path clip-path="url(#p70f099d989)" d="M 693.821684 608.1192 
L 706.851298 608.1192 
L 706.851298 108.771251 
L 693.821684 108.771251 
z
" style="fill:#1f77b4;"/>
   </g>
   <g id="patch_33">
    <path clip-path="url(#p70f099d989)" d="M 710.108702 608.1192 
L 723.138316 608.1192 
L 723.138316 120.682878 
L 710.108702 120.682878 
z
" style="fill:#1f77b4;"/>
   </g>
   <g id="patch_34">
    <path clip-path="url(#p70f099d989)" d="M 726.395719 608.1192 
L 739.425333 608.1192 
L 739.425333 139.804175 
L 726.395719 139.804175 
z
" style="fill:#1f77b4;"/>
   </g>
   <g id="patch_35">
    <path clip-path="url(#p70f099d989)" d="M 742.682736 608.1192 
L 755.71235 608.1192 
L 755.71235 157.514883 
L 742.682736 157.514883 
z
" style="fill:#1f77b4;"/>
   </g>
   <g id="patch_36">
    <path clip-path="url(#p70f099d989)" d="M 758.969754 608.1192 
L 771.999368 608.1192 
L 771.999368 182.591993 
L 758.969754 182.591993 
z
" style="fill:#1f77b4;"/>
   </g>
   <g id="patch_37">
    <path clip-path="url(#p70f099d989)" d="M 775.256771 608.1192 
L 788.286385 608.1192 
L 788.286385 206.885443 
L 775.256771 206.885443 
z
" style="fill:#1f77b4;"/>
   </g>
   <g id="patch_38">
    <path clip-path="url(#p70f099d989)" d="M 791.543788 608.1192 
L 804.573402 608.1192 
L 804.573402 218.953802 
L 791.543788 218.953802 
z
" style="fill:#1f77b4;"/>
   </g>
   <g id="patch_39">
    <path clip-path="url(#p70f099d989)" d="M 807.830806 608.1192 
L 820.86042 608.1192 
L 820.86042 251.710777 
L 807.830806 251.710777 
z
" style="fill:#1f77b4;"/>
   </g>
   <g id="patch_40">
    <path clip-path="url(#p70f099d989)" d="M 824.117823 608.1192 
L 837.147437 608.1192 
L 837.147437 280.706185 
L 824.117823 280.706185 
z
" style="fill:#1f77b4;"/>
   </g>
   <g id="patch_41">
    <path clip-path="url(#p70f099d989)" d="M 840.40484 608.1192 
L 853.434454 608.1192 
L 853.434454 295.125523 
L 840.40484 295.125523 
z
" style="fill:#1f77b4;"/>
   </g>
   <g id="patch_42">
    <path clip-path="url(#p70f099d989)" d="M 856.691858 608.1192 
L 869.721472 608.1192 
L 869.721472 352.019216 
L 856.691858 352.019216 
z
" style="fill:#1f77b4;"/>
   </g>
   <g id="patch_43">
    <path clip-path="url(#p70f099d989)" d="M 872.978875 608.1192 
L 886.008489 608.1192 
L 886.008489 299.043822 
L 872.978875 299.043822 
z
" style="fill:#1f77b4;"/>
   </g>
   <g id="patch_44">
    <path clip-path="url(#p70f099d989)" d="M 889.265892 608.1192 
L 902.295506 608.1192 
L 902.295506 320.202633 
L 889.265892 320.202633 
z
" style="fill:#1f77b4;"/>
   </g>
   <g id="patch_45">
    <path clip-path="url(#p70f099d989)" d="M 905.55291 608.1192 
L 918.582524 608.1192 
L 918.582524 348.414382 
L 905.55291 348.414382 
z
" style="fill:#1f77b4;"/>
   </g>
   <g id="patch_46">
    <path clip-path="url(#p70f099d989)" d="M 921.839927 608.1192 
L 934.869541 608.1192 
L 934.869541 354.683659 
L 921.839927 354.683659 
z
" style="fill:#1f77b4;"/>
   </g>
   <g id="patch_47">
    <path clip-path="url(#p70f099d989)" d="M 938.126944 608.1192 
L 951.156558 608.1192 
L 951.156558 361.423132 
L 938.126944 361.423132 
z
" style="fill:#1f77b4;"/>
   </g>
   <g id="patch_48">
    <path clip-path="url(#p70f099d989)" d="M 954.413962 608.1192 
L 967.443576 608.1192 
L 967.443576 371.140512 
L 954.413962 371.140512 
z
" style="fill:#1f77b4;"/>
   </g>
   <g id="patch_49">
    <path clip-path="url(#p70f099d989)" d="M 970.700979 608.1192 
L 983.730593 608.1192 
L 983.730593 356.40771 
L 970.700979 356.40771 
z
" style="fill:#1f77b4;"/>
   </g>
   <g id="patch_50">
    <path clip-path="url(#p70f099d989)" d="M 986.987996 608.1192 
L 1000.01761 608.1192 
L 1000.01761 373.178028 
L 986.987996 373.178028 
z
" style="fill:#1f77b4;"/>
   </g>
   <g id="patch_51">
    <path clip-path="url(#p70f099d989)" d="M 1003.275014 608.1192 
L 1016.304628 608.1192 
L 1016.304628 392.76952 
L 1003.275014 392.76952 
z
" style="fill:#1f77b4;"/>
   </g>
   <g id="patch_52">
    <path clip-path="url(#p70f099d989)" d="M 1019.562031 608.1192 
L 1032.591645 608.1192 
L 1032.591645 397.62821 
L 1019.562031 397.62821 
z
" style="fill:#1f77b4;"/>
   </g>
   <g id="patch_53">
    <path clip-path="url(#p70f099d989)" d="M 1035.849048 608.1192 
L 1048.878662 608.1192 
L 1048.878662 405.308075 
L 1035.849048 405.308075 
z
" style="fill:#1f77b4;"/>
   </g>
   <g id="patch_54">
    <path clip-path="url(#p70f099d989)" d="M 1052.136066 608.1192 
L 1065.16568 608.1192 
L 1065.16568 404.837879 
L 1052.136066 404.837879 
z
" style="fill:#1f77b4;"/>
   </g>
   <g id="patch_55">
    <path clip-path="url(#p70f099d989)" d="M 1068.423083 608.1192 
L 1081.452697 608.1192 
L 1081.452697 420.981268 
L 1068.423083 420.981268 
z
" style="fill:#1f77b4;"/>
   </g>
   <g id="patch_56">
    <path clip-path="url(#p70f099d989)" d="M 1084.7101 608.1192 
L 1097.739714 608.1192 
L 1097.739714 446.685306 
L 1084.7101 446.685306 
z
" style="fill:#1f77b4;"/>
   </g>
   <g id="patch_57">
    <path clip-path="url(#p70f099d989)" d="M 1100.997118 608.1192 
L 1114.026732 608.1192 
L 1114.026732 425.056299 
L 1100.997118 425.056299 
z
" style="fill:#1f77b4;"/>
   </g>
   <g id="patch_58">
    <path clip-path="url(#p70f099d989)" d="M 1117.284135 608.1192 
L 1130.313749 608.1192 
L 1130.313749 430.385184 
L 1117.284135 430.385184 
z
" style="fill:#1f77b4;"/>
   </g>
   <g id="patch_59">
    <path clip-path="url(#p70f099d989)" d="M 1133.571152 608.1192 
L 1146.600766 608.1192 
L 1146.600766 427.407278 
L 1133.571152 427.407278 
z
" style="fill:#1f77b4;"/>
   </g>
   <g id="patch_60">
    <path clip-path="url(#p70f099d989)" d="M 1149.85817 608.1192 
L 1162.887784 608.1192 
L 1162.887784 452.797851 
L 1149.85817 452.797851 
z
" style="fill:#1f77b4;"/>
   </g>
   <g id="patch_61">
    <path clip-path="url(#p70f099d989)" d="M 1166.145187 608.1192 
L 1179.174801 608.1192 
L 1179.174801 433.833287 
L 1166.145187 433.833287 
z
" style="fill:#1f77b4;"/>
   </g>
   <g id="patch_62">
    <path clip-path="url(#p70f099d989)" d="M 1182.432204 608.1192 
L 1195.461818 608.1192 
L 1195.461818 439.945832 
L 1182.432204 439.945832 
z
" style="fill:#1f77b4;"/>
   </g>
   <g id="patch_63">
    <path clip-path="url(#p70f099d989)" d="M 224.755585 608.1192 
L 231.270392 608.1192 
L 231.270392 549.187992 
L 224.755585 549.187992 
z
" style="fill:#ff7f0e;"/>
   </g>
   <g id="patch_64">
    <path clip-path="url(#p70f099d989)" d="M 241.042603 608.1192 
L 247.55741 608.1192 
L 247.55741 525.991665 
L 241.042603 525.991665 
z
" style="fill:#ff7f0e;"/>
   </g>
   <g id="patch_65">
    <path clip-path="url(#p70f099d989)" d="M 257.32962 608.1192 
L 263.844427 608.1192 
L 263.844427 475.680714 
L 257.32962 475.680714 
z
" style="fill:#ff7f0e;"/>
   </g>
   <g id="patch_66">
    <path clip-path="url(#p70f099d989)" d="M 273.616637 608.1192 
L 280.131444 608.1192 
L 280.131444 515.177162 
L 273.616637 515.177162 
z
" style="fill:#ff7f0e;"/>
   </g>
   <g id="patch_67">
    <path clip-path="url(#p70f099d989)" d="M 289.903655 608.1192 
L 296.418462 608.1192 
L 296.418462 515.177162 
L 289.903655 515.177162 
z
" style="fill:#ff7f0e;"/>
   </g>
   <g id="patch_68">
    <path clip-path="url(#p70f099d989)" d="M 306.190672 608.1192 
L 312.705479 608.1192 
L 312.705479 413.614867 
L 306.190672 413.614867 
z
" style="fill:#ff7f0e;"/>
   </g>
   <g id="patch_69">
    <path clip-path="url(#p70f099d989)" d="M 322.477689 608.1192 
L 328.992496 608.1192 
L 328.992496 439.945832 
L 322.477689 439.945832 
z
" style="fill:#ff7f0e;"/>
   </g>
   <g id="patch_70">
    <path clip-path="url(#p70f099d989)" d="M 338.764707 608.1192 
L 345.279514 608.1192 
L 345.279514 488.689465 
L 338.764707 488.689465 
z
" style="fill:#ff7f0e;"/>
   </g>
   <g id="patch_71">
    <path clip-path="url(#p70f099d989)" d="M 355.051724 608.1192 
L 361.566531 608.1192 
L 361.566531 513.923306 
L 355.051724 513.923306 
z
" style="fill:#ff7f0e;"/>
   </g>
   <g id="patch_72">
    <path clip-path="url(#p70f099d989)" d="M 371.338741 608.1192 
L 377.853548 608.1192 
L 377.853548 469.881632 
L 371.338741 469.881632 
z
" style="fill:#ff7f0e;"/>
   </g>
   <g id="patch_73">
    <path clip-path="url(#p70f099d989)" d="M 387.625759 608.1192 
L 394.140566 608.1192 
L 394.140566 458.126737 
L 387.625759 458.126737 
z
" style="fill:#ff7f0e;"/>
   </g>
   <g id="patch_74">
    <path clip-path="url(#p70f099d989)" d="M 403.912776 608.1192 
L 410.427583 608.1192 
L 410.427583 440.57276 
L 403.912776 440.57276 
z
" style="fill:#ff7f0e;"/>
   </g>
   <g id="patch_75">
    <path clip-path="url(#p70f099d989)" d="M 420.199793 608.1192 
L 426.7146 608.1192 
L 426.7146 406.875394 
L 420.199793 406.875394 
z
" style="fill:#ff7f0e;"/>
   </g>
   <g id="patch_76">
    <path clip-path="url(#p70f099d989)" d="M 436.486811 608.1192 
L 443.001618 608.1192 
L 443.001618 392.926252 
L 436.486811 392.926252 
z
" style="fill:#ff7f0e;"/>
   </g>
   <g id="patch_77">
    <path clip-path="url(#p70f099d989)" d="M 452.773828 608.1192 
L 459.288635 608.1192 
L 459.288635 418.943753 
L 452.773828 418.943753 
z
" style="fill:#ff7f0e;"/>
   </g>
   <g id="patch_78">
    <path clip-path="url(#p70f099d989)" d="M 469.060845 608.1192 
L 475.575652 608.1192 
L 475.575652 441.983348 
L 469.060845 441.983348 
z
" style="fill:#ff7f0e;"/>
   </g>
   <g id="patch_79">
    <path clip-path="url(#p70f099d989)" d="M 485.347863 608.1192 
L 491.86267 608.1192 
L 491.86267 424.272639 
L 485.347863 424.272639 
z
" style="fill:#ff7f0e;"/>
   </g>
   <g id="patch_80">
    <path clip-path="url(#p70f099d989)" d="M 501.63488 608.1192 
L 508.149687 608.1192 
L 508.149687 421.764928 
L 501.63488 421.764928 
z
" style="fill:#ff7f0e;"/>
   </g>
   <g id="patch_81">
    <path clip-path="url(#p70f099d989)" d="M 517.921897 608.1192 
L 524.436704 608.1192 
L 524.436704 444.177595 
L 517.921897 444.177595 
z
" style="fill:#ff7f0e;"/>
   </g>
   <g id="patch_82">
    <path clip-path="url(#p70f099d989)" d="M 534.208915 608.1192 
L 540.723721 608.1192 
L 540.723721 415.025455 
L 534.208915 415.025455 
z
" style="fill:#ff7f0e;"/>
   </g>
   <g id="patch_83">
    <path clip-path="url(#p70f099d989)" d="M 550.495932 608.1192 
L 557.010739 608.1192 
L 557.010739 456.245954 
L 550.495932 456.245954 
z
" style="fill:#ff7f0e;"/>
   </g>
   <g id="patch_84">
    <path clip-path="url(#p70f099d989)" d="M 566.782949 608.1192 
L 573.297756 608.1192 
L 573.297756 446.99877 
L 566.782949 446.99877 
z
" style="fill:#ff7f0e;"/>
   </g>
   <g id="patch_85">
    <path clip-path="url(#p70f099d989)" d="M 583.069967 608.1192 
L 589.584773 608.1192 
L 589.584773 380.074233 
L 583.069967 380.074233 
z
" style="fill:#ff7f0e;"/>
   </g>
   <g id="patch_86">
    <path clip-path="url(#p70f099d989)" d="M 599.356984 608.1192 
L 605.871791 608.1192 
L 605.871791 337.75661 
L 599.356984 337.75661 
z
" style="fill:#ff7f0e;"/>
   </g>
   <g id="patch_87">
    <path clip-path="url(#p70f099d989)" d="M 615.644001 608.1192 
L 622.158808 608.1192 
L 622.158808 262.682013 
L 615.644001 262.682013 
z
" style="fill:#ff7f0e;"/>
   </g>
   <g id="patch_88">
    <path clip-path="url(#p70f099d989)" d="M 631.931019 608.1192 
L 638.445825 608.1192 
L 638.445825 233.529873 
L 631.931019 233.529873 
z
" style="fill:#ff7f0e;"/>
   </g>
   <g id="patch_89">
    <path clip-path="url(#p70f099d989)" d="M 648.218036 608.1192 
L 654.732843 608.1192 
L 654.732843 147.170576 
L 648.218036 147.170576 
z
" style="fill:#ff7f0e;"/>
   </g>
   <g id="patch_90">
    <path clip-path="url(#p70f099d989)" d="M 664.505053 608.1192 
L 671.01986 608.1192 
L 671.01986 123.190589 
L 664.505053 123.190589 
z
" style="fill:#ff7f0e;"/>
   </g>
   <g id="patch_91">
    <path clip-path="url(#p70f099d989)" d="M 680.792071 608.1192 
L 687.306877 608.1192 
L 687.306877 152.34273 
L 680.792071 152.34273 
z
" style="fill:#ff7f0e;"/>
   </g>
   <g id="patch_92">
    <path clip-path="url(#p70f099d989)" d="M 697.079088 608.1192 
L 703.593895 608.1192 
L 703.593895 107.0472 
L 697.079088 107.0472 
z
" style="fill:#ff7f0e;"/>
   </g>
   <g id="patch_93">
    <path clip-path="url(#p70f099d989)" d="M 713.366105 608.1192 
L 719.880912 608.1192 
L 719.880912 119.742487 
L 713.366105 119.742487 
z
" style="fill:#ff7f0e;"/>
   </g>
   <g id="patch_94">
    <path clip-path="url(#p70f099d989)" d="M 729.653123 608.1192 
L 736.167929 608.1192 
L 736.167929 140.27437 
L 729.653123 140.27437 
z
" style="fill:#ff7f0e;"/>
   </g>
   <g id="patch_95">
    <path clip-path="url(#p70f099d989)" d="M 745.94014 608.1192 
L 752.454947 608.1192 
L 752.454947 157.514883 
L 745.94014 157.514883 
z
" style="fill:#ff7f0e;"/>
   </g>
   <g id="patch_96">
    <path clip-path="url(#p70f099d989)" d="M 762.227157 608.1192 
L 768.741964 608.1192 
L 768.741964 179.770818 
L 762.227157 179.770818 
z
" style="fill:#ff7f0e;"/>
   </g>
   <g id="patch_97">
    <path clip-path="url(#p70f099d989)" d="M 778.514175 608.1192 
L 785.028981 608.1192 
L 785.028981 206.415248 
L 778.514175 206.415248 
z
" style="fill:#ff7f0e;"/>
   </g>
   <g id="patch_98">
    <path clip-path="url(#p70f099d989)" d="M 794.801192 608.1192 
L 801.315999 608.1192 
L 801.315999 220.36439 
L 794.801192 220.36439 
z
" style="fill:#ff7f0e;"/>
   </g>
   <g id="patch_99">
    <path clip-path="url(#p70f099d989)" d="M 811.088209 608.1192 
L 817.603016 608.1192 
L 817.603016 251.083849 
L 811.088209 251.083849 
z
" style="fill:#ff7f0e;"/>
   </g>
   <g id="patch_100">
    <path clip-path="url(#p70f099d989)" d="M 827.375227 608.1192 
L 833.890033 608.1192 
L 833.890033 280.549453 
L 827.375227 280.549453 
z
" style="fill:#ff7f0e;"/>
   </g>
   <g id="patch_101">
    <path clip-path="url(#p70f099d989)" d="M 843.662244 608.1192 
L 850.177051 608.1192 
L 850.177051 294.81206 
L 843.662244 294.81206 
z
" style="fill:#ff7f0e;"/>
   </g>
   <g id="patch_102">
    <path clip-path="url(#p70f099d989)" d="M 859.949261 608.1192 
L 866.464068 608.1192 
L 866.464068 351.862484 
L 859.949261 351.862484 
z
" style="fill:#ff7f0e;"/>
   </g>
   <g id="patch_103">
    <path clip-path="url(#p70f099d989)" d="M 876.236279 608.1192 
L 882.751085 608.1192 
L 882.751085 299.200554 
L 876.236279 299.200554 
z
" style="fill:#ff7f0e;"/>
   </g>
   <g id="patch_104">
    <path clip-path="url(#p70f099d989)" d="M 892.523296 608.1192 
L 899.038103 608.1192 
L 899.038103 318.792046 
L 892.523296 318.792046 
z
" style="fill:#ff7f0e;"/>
   </g>
   <g id="patch_105">
    <path clip-path="url(#p70f099d989)" d="M 908.810313 608.1192 
L 915.32512 608.1192 
L 915.32512 346.847062 
L 908.810313 346.847062 
z
" style="fill:#ff7f0e;"/>
   </g>
   <g id="patch_106">
    <path clip-path="url(#p70f099d989)" d="M 925.09733 608.1192 
L 931.612137 608.1192 
L 931.612137 353.899999 
L 925.09733 353.899999 
z
" style="fill:#ff7f0e;"/>
   </g>
   <g id="patch_107">
    <path clip-path="url(#p70f099d989)" d="M 941.384348 608.1192 
L 947.899155 608.1192 
L 947.899155 360.482741 
L 941.384348 360.482741 
z
" style="fill:#ff7f0e;"/>
   </g>
   <g id="patch_108">
    <path clip-path="url(#p70f099d989)" d="M 957.671365 608.1192 
L 964.186172 608.1192 
L 964.186172 370.827049 
L 957.671365 370.827049 
z
" style="fill:#ff7f0e;"/>
   </g>
   <g id="patch_109">
    <path clip-path="url(#p70f099d989)" d="M 973.958382 608.1192 
L 980.473189 608.1192 
L 980.473189 355.780783 
L 973.958382 355.780783 
z
" style="fill:#ff7f0e;"/>
   </g>
   <g id="patch_110">
    <path clip-path="url(#p70f099d989)" d="M 990.2454 608.1192 
L 996.760207 608.1192 
L 996.760207 373.491492 
L 990.2454 373.491492 
z
" style="fill:#ff7f0e;"/>
   </g>
   <g id="patch_111">
    <path clip-path="url(#p70f099d989)" d="M 1006.532417 608.1192 
L 1013.047224 608.1192 
L 1013.047224 393.082984 
L 1006.532417 393.082984 
z
" style="fill:#ff7f0e;"/>
   </g>
   <g id="patch_112">
    <path clip-path="url(#p70f099d989)" d="M 1022.819434 608.1192 
L 1029.334241 608.1192 
L 1029.334241 397.784942 
L 1022.819434 397.784942 
z
" style="fill:#ff7f0e;"/>
   </g>
   <g id="patch_113">
    <path clip-path="url(#p70f099d989)" d="M 1039.106452 608.1192 
L 1045.621259 608.1192 
L 1045.621259 406.091734 
L 1039.106452 406.091734 
z
" style="fill:#ff7f0e;"/>
   </g>
   <g id="patch_114">
    <path clip-path="url(#p70f099d989)" d="M 1055.393469 608.1192 
L 1061.908276 608.1192 
L 1061.908276 405.464807 
L 1055.393469 405.464807 
z
" style="fill:#ff7f0e;"/>
   </g>
   <g id="patch_115">
    <path clip-path="url(#p70f099d989)" d="M 1071.680486 608.1192 
L 1078.195293 608.1192 
L 1078.195293 421.138 
L 1071.680486 421.138 
z
" style="fill:#ff7f0e;"/>
   </g>
   <g id="patch_116">
    <path clip-path="url(#p70f099d989)" d="M 1087.967504 608.1192 
L 1094.482311 608.1192 
L 1094.482311 446.685306 
L 1087.967504 446.685306 
z
" style="fill:#ff7f0e;"/>
   </g>
   <g id="patch_117">
    <path clip-path="url(#p70f099d989)" d="M 1104.254521 608.1192 
L 1110.769328 608.1192 
L 1110.769328 425.683226 
L 1104.254521 425.683226 
z
" style="fill:#ff7f0e;"/>
   </g>
   <g id="patch_118">
    <path clip-path="url(#p70f099d989)" d="M 1120.541538 608.1192 
L 1127.056345 608.1192 
L 1127.056345 430.07172 
L 1120.541538 430.07172 
z
" style="fill:#ff7f0e;"/>
   </g>
   <g id="patch_119">
    <path clip-path="url(#p70f099d989)" d="M 1136.828556 608.1192 
L 1143.343363 608.1192 
L 1143.343363 426.466886 
L 1136.828556 426.466886 
z
" style="fill:#ff7f0e;"/>
   </g>
   <g id="patch_120">
    <path clip-path="url(#p70f099d989)" d="M 1153.115573 608.1192 
L 1159.63038 608.1192 
L 1159.63038 452.797851 
L 1153.115573 452.797851 
z
" style="fill:#ff7f0e;"/>
   </g>
   <g id="patch_121">
    <path clip-path="url(#p70f099d989)" d="M 1169.40259 608.1192 
L 1175.917397 608.1192 
L 1175.917397 434.146751 
L 1169.40259 434.146751 
z
" style="fill:#ff7f0e;"/>
   </g>
   <g id="patch_122">
    <path clip-path="url(#p70f099d989)" d="M 1185.689608 608.1192 
L 1192.204415 608.1192 
L 1192.204415 439.475637 
L 1185.689608 439.475637 
z
" style="fill:#ff7f0e;"/>
   </g>
   <g id="matplotlib.axis_1">
    <g id="xtick_1">
     <g id="line2d_1">
      <defs>
       <path d="M 0 0 
L 0 3.5 
" id="m61f01e3014" style="stroke:#000000;stroke-width:0.8;"/>
      </defs>
      <g>
       <use style="stroke:#000000;stroke-width:0.8;" x="211.725971" xlink:href="#m61f01e3014" y="608.1192"/>
      </g>
     </g>
     <g id="text_1">
      <!-- 0 -->
      <defs>
       <path d="M 31.78125 66.40625 
Q 24.171875 66.40625 20.328125 58.90625 
Q 16.5 51.421875 16.5 36.375 
Q 16.5 21.390625 20.328125 13.890625 
Q 24.171875 6.390625 31.78125 6.390625 
Q 39.453125 6.390625 43.28125 13.890625 
Q 47.125 21.390625 47.125 36.375 
Q 47.125 51.421875 43.28125 58.90625 
Q 39.453125 66.40625 31.78125 66.40625 
z
M 31.78125 74.21875 
Q 44.046875 74.21875 50.515625 64.515625 
Q 56.984375 54.828125 56.984375 36.375 
Q 56.984375 17.96875 50.515625 8.265625 
Q 44.046875 -1.421875 31.78125 -1.421875 
Q 19.53125 -1.421875 13.0625 8.265625 
Q 6.59375 17.96875 6.59375 36.375 
Q 6.59375 54.828125 13.0625 64.515625 
Q 19.53125 74.21875 31.78125 74.21875 
z
" id="DejaVuSans-48"/>
      </defs>
      <g transform="translate(208.544721 622.717638)scale(0.1 -0.1)">
       <use xlink:href="#DejaVuSans-48"/>
      </g>
     </g>
    </g>
    <g id="xtick_2">
     <g id="line2d_2">
      <g>
       <use style="stroke:#000000;stroke-width:0.8;" x="374.596145" xlink:href="#m61f01e3014" y="608.1192"/>
      </g>
     </g>
     <g id="text_2">
      <!-- 10 -->
      <defs>
       <path d="M 12.40625 8.296875 
L 28.515625 8.296875 
L 28.515625 63.921875 
L 10.984375 60.40625 
L 10.984375 69.390625 
L 28.421875 72.90625 
L 38.28125 72.90625 
L 38.28125 8.296875 
L 54.390625 8.296875 
L 54.390625 0 
L 12.40625 0 
z
" id="DejaVuSans-49"/>
      </defs>
      <g transform="translate(368.233645 622.717638)scale(0.1 -0.1)">
       <use xlink:href="#DejaVuSans-49"/>
       <use x="63.623047" xlink:href="#DejaVuSans-48"/>
      </g>
     </g>
    </g>
    <g id="xtick_3">
     <g id="line2d_3">
      <g>
       <use style="stroke:#000000;stroke-width:0.8;" x="537.466318" xlink:href="#m61f01e3014" y="608.1192"/>
      </g>
     </g>
     <g id="text_3">
      <!-- 20 -->
      <defs>
       <path d="M 19.1875 8.296875 
L 53.609375 8.296875 
L 53.609375 0 
L 7.328125 0 
L 7.328125 8.296875 
Q 12.9375 14.109375 22.625 23.890625 
Q 32.328125 33.6875 34.8125 36.53125 
Q 39.546875 41.84375 41.421875 45.53125 
Q 43.3125 49.21875 43.3125 52.78125 
Q 43.3125 58.59375 39.234375 62.25 
Q 35.15625 65.921875 28.609375 65.921875 
Q 23.96875 65.921875 18.8125 64.3125 
Q 13.671875 62.703125 7.8125 59.421875 
L 7.8125 69.390625 
Q 13.765625 71.78125 18.9375 73 
Q 24.125 74.21875 28.421875 74.21875 
Q 39.75 74.21875 46.484375 68.546875 
Q 53.21875 62.890625 53.21875 53.421875 
Q 53.21875 48.921875 51.53125 44.890625 
Q 49.859375 40.875 45.40625 35.40625 
Q 44.1875 33.984375 37.640625 27.21875 
Q 31.109375 20.453125 19.1875 8.296875 
z
" id="DejaVuSans-50"/>
      </defs>
      <g transform="translate(531.103818 622.717638)scale(0.1 -0.1)">
       <use xlink:href="#DejaVuSans-50"/>
       <use x="63.623047" xlink:href="#DejaVuSans-48"/>
      </g>
     </g>
    </g>
    <g id="xtick_4">
     <g id="line2d_4">
      <g>
       <use style="stroke:#000000;stroke-width:0.8;" x="700.336491" xlink:href="#m61f01e3014" y="608.1192"/>
      </g>
     </g>
     <g id="text_4">
      <!-- 30 -->
      <defs>
       <path d="M 40.578125 39.3125 
Q 47.65625 37.796875 51.625 33 
Q 55.609375 28.21875 55.609375 21.1875 
Q 55.609375 10.40625 48.1875 4.484375 
Q 40.765625 -1.421875 27.09375 -1.421875 
Q 22.515625 -1.421875 17.65625 -0.515625 
Q 12.796875 0.390625 7.625 2.203125 
L 7.625 11.71875 
Q 11.71875 9.328125 16.59375 8.109375 
Q 21.484375 6.890625 26.8125 6.890625 
Q 36.078125 6.890625 40.9375 10.546875 
Q 45.796875 14.203125 45.796875 21.1875 
Q 45.796875 27.640625 41.28125 31.265625 
Q 36.765625 34.90625 28.71875 34.90625 
L 20.21875 34.90625 
L 20.21875 43.015625 
L 29.109375 43.015625 
Q 36.375 43.015625 40.234375 45.921875 
Q 44.09375 48.828125 44.09375 54.296875 
Q 44.09375 59.90625 40.109375 62.90625 
Q 36.140625 65.921875 28.71875 65.921875 
Q 24.65625 65.921875 20.015625 65.03125 
Q 15.375 64.15625 9.8125 62.3125 
L 9.8125 71.09375 
Q 15.4375 72.65625 20.34375 73.4375 
Q 25.25 74.21875 29.59375 74.21875 
Q 40.828125 74.21875 47.359375 69.109375 
Q 53.90625 64.015625 53.90625 55.328125 
Q 53.90625 49.265625 50.4375 45.09375 
Q 46.96875 40.921875 40.578125 39.3125 
z
" id="DejaVuSans-51"/>
      </defs>
      <g transform="translate(693.973991 622.717638)scale(0.1 -0.1)">
       <use xlink:href="#DejaVuSans-51"/>
       <use x="63.623047" xlink:href="#DejaVuSans-48"/>
      </g>
     </g>
    </g>
    <g id="xtick_5">
     <g id="line2d_5">
      <g>
       <use style="stroke:#000000;stroke-width:0.8;" x="863.206665" xlink:href="#m61f01e3014" y="608.1192"/>
      </g>
     </g>
     <g id="text_5">
      <!-- 40 -->
      <defs>
       <path d="M 37.796875 64.3125 
L 12.890625 25.390625 
L 37.796875 25.390625 
z
M 35.203125 72.90625 
L 47.609375 72.90625 
L 47.609375 25.390625 
L 58.015625 25.390625 
L 58.015625 17.1875 
L 47.609375 17.1875 
L 47.609375 0 
L 37.796875 0 
L 37.796875 17.1875 
L 4.890625 17.1875 
L 4.890625 26.703125 
z
" id="DejaVuSans-52"/>
      </defs>
      <g transform="translate(856.844165 622.717638)scale(0.1 -0.1)">
       <use xlink:href="#DejaVuSans-52"/>
       <use x="63.623047" xlink:href="#DejaVuSans-48"/>
      </g>
     </g>
    </g>
    <g id="xtick_6">
     <g id="line2d_6">
      <g>
       <use style="stroke:#000000;stroke-width:0.8;" x="1026.076838" xlink:href="#m61f01e3014" y="608.1192"/>
      </g>
     </g>
     <g id="text_6">
      <!-- 50 -->
      <defs>
       <path d="M 10.796875 72.90625 
L 49.515625 72.90625 
L 49.515625 64.59375 
L 19.828125 64.59375 
L 19.828125 46.734375 
Q 21.96875 47.46875 24.109375 47.828125 
Q 26.265625 48.1875 28.421875 48.1875 
Q 40.625 48.1875 47.75 41.5 
Q 54.890625 34.8125 54.890625 23.390625 
Q 54.890625 11.625 47.5625 5.09375 
Q 40.234375 -1.421875 26.90625 -1.421875 
Q 22.3125 -1.421875 17.546875 -0.640625 
Q 12.796875 0.140625 7.71875 1.703125 
L 7.71875 11.625 
Q 12.109375 9.234375 16.796875 8.0625 
Q 21.484375 6.890625 26.703125 6.890625 
Q 35.15625 6.890625 40.078125 11.328125 
Q 45.015625 15.765625 45.015625 23.390625 
Q 45.015625 31 40.078125 35.4375 
Q 35.15625 39.890625 26.703125 39.890625 
Q 22.75 39.890625 18.8125 39.015625 
Q 14.890625 38.140625 10.796875 36.28125 
z
" id="DejaVuSans-53"/>
      </defs>
      <g transform="translate(1019.714338 622.717638)scale(0.1 -0.1)">
       <use xlink:href="#DejaVuSans-53"/>
       <use x="63.623047" xlink:href="#DejaVuSans-48"/>
      </g>
     </g>
    </g>
    <g id="xtick_7">
     <g id="line2d_7">
      <g>
       <use style="stroke:#000000;stroke-width:0.8;" x="1188.947011" xlink:href="#m61f01e3014" y="608.1192"/>
      </g>
     </g>
     <g id="text_7">
      <!-- 60 -->
      <defs>
       <path d="M 33.015625 40.375 
Q 26.375 40.375 22.484375 35.828125 
Q 18.609375 31.296875 18.609375 23.390625 
Q 18.609375 15.53125 22.484375 10.953125 
Q 26.375 6.390625 33.015625 6.390625 
Q 39.65625 6.390625 43.53125 10.953125 
Q 47.40625 15.53125 47.40625 23.390625 
Q 47.40625 31.296875 43.53125 35.828125 
Q 39.65625 40.375 33.015625 40.375 
z
M 52.59375 71.296875 
L 52.59375 62.3125 
Q 48.875 64.0625 45.09375 64.984375 
Q 41.3125 65.921875 37.59375 65.921875 
Q 27.828125 65.921875 22.671875 59.328125 
Q 17.53125 52.734375 16.796875 39.40625 
Q 19.671875 43.65625 24.015625 45.921875 
Q 28.375 48.1875 33.59375 48.1875 
Q 44.578125 48.1875 50.953125 41.515625 
Q 57.328125 34.859375 57.328125 23.390625 
Q 57.328125 12.15625 50.6875 5.359375 
Q 44.046875 -1.421875 33.015625 -1.421875 
Q 20.359375 -1.421875 13.671875 8.265625 
Q 6.984375 17.96875 6.984375 36.375 
Q 6.984375 53.65625 15.1875 63.9375 
Q 23.390625 74.21875 37.203125 74.21875 
Q 40.921875 74.21875 44.703125 73.484375 
Q 48.484375 72.75 52.59375 71.296875 
z
" id="DejaVuSans-54"/>
      </defs>
      <g transform="translate(1182.584511 622.717638)scale(0.1 -0.1)">
       <use xlink:href="#DejaVuSans-54"/>
       <use x="63.623047" xlink:href="#DejaVuSans-48"/>
      </g>
     </g>
    </g>
    <g id="text_8">
     <!-- Days ( Orange = Simulation Output , Blue= Real Data ) -->
     <defs>
      <path d="M 19.671875 64.796875 
L 19.671875 8.109375 
L 31.59375 8.109375 
Q 46.6875 8.109375 53.6875 14.9375 
Q 60.6875 21.78125 60.6875 36.53125 
Q 60.6875 51.171875 53.6875 57.984375 
Q 46.6875 64.796875 31.59375 64.796875 
z
M 9.8125 72.90625 
L 30.078125 72.90625 
Q 51.265625 72.90625 61.171875 64.09375 
Q 71.09375 55.28125 71.09375 36.53125 
Q 71.09375 17.671875 61.125 8.828125 
Q 51.171875 0 30.078125 0 
L 9.8125 0 
z
" id="DejaVuSans-68"/>
      <path d="M 34.28125 27.484375 
Q 23.390625 27.484375 19.1875 25 
Q 14.984375 22.515625 14.984375 16.5 
Q 14.984375 11.71875 18.140625 8.90625 
Q 21.296875 6.109375 26.703125 6.109375 
Q 34.1875 6.109375 38.703125 11.40625 
Q 43.21875 16.703125 43.21875 25.484375 
L 43.21875 27.484375 
z
M 52.203125 31.203125 
L 52.203125 0 
L 43.21875 0 
L 43.21875 8.296875 
Q 40.140625 3.328125 35.546875 0.953125 
Q 30.953125 -1.421875 24.3125 -1.421875 
Q 15.921875 -1.421875 10.953125 3.296875 
Q 6 8.015625 6 15.921875 
Q 6 25.140625 12.171875 29.828125 
Q 18.359375 34.515625 30.609375 34.515625 
L 43.21875 34.515625 
L 43.21875 35.40625 
Q 43.21875 41.609375 39.140625 45 
Q 35.0625 48.390625 27.6875 48.390625 
Q 23 48.390625 18.546875 47.265625 
Q 14.109375 46.140625 10.015625 43.890625 
L 10.015625 52.203125 
Q 14.9375 54.109375 19.578125 55.046875 
Q 24.21875 56 28.609375 56 
Q 40.484375 56 46.34375 49.84375 
Q 52.203125 43.703125 52.203125 31.203125 
z
" id="DejaVuSans-97"/>
      <path d="M 32.171875 -5.078125 
Q 28.375 -14.84375 24.75 -17.8125 
Q 21.140625 -20.796875 15.09375 -20.796875 
L 7.90625 -20.796875 
L 7.90625 -13.28125 
L 13.1875 -13.28125 
Q 16.890625 -13.28125 18.9375 -11.515625 
Q 21 -9.765625 23.484375 -3.21875 
L 25.09375 0.875 
L 2.984375 54.6875 
L 12.5 54.6875 
L 29.59375 11.921875 
L 46.6875 54.6875 
L 56.203125 54.6875 
z
" id="DejaVuSans-121"/>
      <path d="M 44.28125 53.078125 
L 44.28125 44.578125 
Q 40.484375 46.53125 36.375 47.5 
Q 32.28125 48.484375 27.875 48.484375 
Q 21.1875 48.484375 17.84375 46.4375 
Q 14.5 44.390625 14.5 40.28125 
Q 14.5 37.15625 16.890625 35.375 
Q 19.28125 33.59375 26.515625 31.984375 
L 29.59375 31.296875 
Q 39.15625 29.25 43.1875 25.515625 
Q 47.21875 21.78125 47.21875 15.09375 
Q 47.21875 7.46875 41.1875 3.015625 
Q 35.15625 -1.421875 24.609375 -1.421875 
Q 20.21875 -1.421875 15.453125 -0.5625 
Q 10.6875 0.296875 5.421875 2 
L 5.421875 11.28125 
Q 10.40625 8.6875 15.234375 7.390625 
Q 20.0625 6.109375 24.8125 6.109375 
Q 31.15625 6.109375 34.5625 8.28125 
Q 37.984375 10.453125 37.984375 14.40625 
Q 37.984375 18.0625 35.515625 20.015625 
Q 33.0625 21.96875 24.703125 23.78125 
L 21.578125 24.515625 
Q 13.234375 26.265625 9.515625 29.90625 
Q 5.8125 33.546875 5.8125 39.890625 
Q 5.8125 47.609375 11.28125 51.796875 
Q 16.75 56 26.8125 56 
Q 31.78125 56 36.171875 55.265625 
Q 40.578125 54.546875 44.28125 53.078125 
z
" id="DejaVuSans-115"/>
      <path id="DejaVuSans-32"/>
      <path d="M 31 75.875 
Q 24.46875 64.65625 21.28125 53.65625 
Q 18.109375 42.671875 18.109375 31.390625 
Q 18.109375 20.125 21.3125 9.0625 
Q 24.515625 -2 31 -13.1875 
L 23.1875 -13.1875 
Q 15.875 -1.703125 12.234375 9.375 
Q 8.59375 20.453125 8.59375 31.390625 
Q 8.59375 42.28125 12.203125 53.3125 
Q 15.828125 64.359375 23.1875 75.875 
z
" id="DejaVuSans-40"/>
      <path d="M 39.40625 66.21875 
Q 28.65625 66.21875 22.328125 58.203125 
Q 16.015625 50.203125 16.015625 36.375 
Q 16.015625 22.609375 22.328125 14.59375 
Q 28.65625 6.59375 39.40625 6.59375 
Q 50.140625 6.59375 56.421875 14.59375 
Q 62.703125 22.609375 62.703125 36.375 
Q 62.703125 50.203125 56.421875 58.203125 
Q 50.140625 66.21875 39.40625 66.21875 
z
M 39.40625 74.21875 
Q 54.734375 74.21875 63.90625 63.9375 
Q 73.09375 53.65625 73.09375 36.375 
Q 73.09375 19.140625 63.90625 8.859375 
Q 54.734375 -1.421875 39.40625 -1.421875 
Q 24.03125 -1.421875 14.8125 8.828125 
Q 5.609375 19.09375 5.609375 36.375 
Q 5.609375 53.65625 14.8125 63.9375 
Q 24.03125 74.21875 39.40625 74.21875 
z
" id="DejaVuSans-79"/>
      <path d="M 41.109375 46.296875 
Q 39.59375 47.171875 37.8125 47.578125 
Q 36.03125 48 33.890625 48 
Q 26.265625 48 22.1875 43.046875 
Q 18.109375 38.09375 18.109375 28.8125 
L 18.109375 0 
L 9.078125 0 
L 9.078125 54.6875 
L 18.109375 54.6875 
L 18.109375 46.1875 
Q 20.953125 51.171875 25.484375 53.578125 
Q 30.03125 56 36.53125 56 
Q 37.453125 56 38.578125 55.875 
Q 39.703125 55.765625 41.0625 55.515625 
z
" id="DejaVuSans-114"/>
      <path d="M 54.890625 33.015625 
L 54.890625 0 
L 45.90625 0 
L 45.90625 32.71875 
Q 45.90625 40.484375 42.875 44.328125 
Q 39.84375 48.1875 33.796875 48.1875 
Q 26.515625 48.1875 22.3125 43.546875 
Q 18.109375 38.921875 18.109375 30.90625 
L 18.109375 0 
L 9.078125 0 
L 9.078125 54.6875 
L 18.109375 54.6875 
L 18.109375 46.1875 
Q 21.34375 51.125 25.703125 53.5625 
Q 30.078125 56 35.796875 56 
Q 45.21875 56 50.046875 50.171875 
Q 54.890625 44.34375 54.890625 33.015625 
z
" id="DejaVuSans-110"/>
      <path d="M 45.40625 27.984375 
Q 45.40625 37.75 41.375 43.109375 
Q 37.359375 48.484375 30.078125 48.484375 
Q 22.859375 48.484375 18.828125 43.109375 
Q 14.796875 37.75 14.796875 27.984375 
Q 14.796875 18.265625 18.828125 12.890625 
Q 22.859375 7.515625 30.078125 7.515625 
Q 37.359375 7.515625 41.375 12.890625 
Q 45.40625 18.265625 45.40625 27.984375 
z
M 54.390625 6.78125 
Q 54.390625 -7.171875 48.1875 -13.984375 
Q 42 -20.796875 29.203125 -20.796875 
Q 24.46875 -20.796875 20.265625 -20.09375 
Q 16.0625 -19.390625 12.109375 -17.921875 
L 12.109375 -9.1875 
Q 16.0625 -11.328125 19.921875 -12.34375 
Q 23.78125 -13.375 27.78125 -13.375 
Q 36.625 -13.375 41.015625 -8.765625 
Q 45.40625 -4.15625 45.40625 5.171875 
L 45.40625 9.625 
Q 42.625 4.78125 38.28125 2.390625 
Q 33.9375 0 27.875 0 
Q 17.828125 0 11.671875 7.65625 
Q 5.515625 15.328125 5.515625 27.984375 
Q 5.515625 40.671875 11.671875 48.328125 
Q 17.828125 56 27.875 56 
Q 33.9375 56 38.28125 53.609375 
Q 42.625 51.21875 45.40625 46.390625 
L 45.40625 54.6875 
L 54.390625 54.6875 
z
" id="DejaVuSans-103"/>
      <path d="M 56.203125 29.59375 
L 56.203125 25.203125 
L 14.890625 25.203125 
Q 15.484375 15.921875 20.484375 11.0625 
Q 25.484375 6.203125 34.421875 6.203125 
Q 39.59375 6.203125 44.453125 7.46875 
Q 49.3125 8.734375 54.109375 11.28125 
L 54.109375 2.78125 
Q 49.265625 0.734375 44.1875 -0.34375 
Q 39.109375 -1.421875 33.890625 -1.421875 
Q 20.796875 -1.421875 13.15625 6.1875 
Q 5.515625 13.8125 5.515625 26.8125 
Q 5.515625 40.234375 12.765625 48.109375 
Q 20.015625 56 32.328125 56 
Q 43.359375 56 49.78125 48.890625 
Q 56.203125 41.796875 56.203125 29.59375 
z
M 47.21875 32.234375 
Q 47.125 39.59375 43.09375 43.984375 
Q 39.0625 48.390625 32.421875 48.390625 
Q 24.90625 48.390625 20.390625 44.140625 
Q 15.875 39.890625 15.1875 32.171875 
z
" id="DejaVuSans-101"/>
      <path d="M 10.59375 45.40625 
L 73.1875 45.40625 
L 73.1875 37.203125 
L 10.59375 37.203125 
z
M 10.59375 25.484375 
L 73.1875 25.484375 
L 73.1875 17.1875 
L 10.59375 17.1875 
z
" id="DejaVuSans-61"/>
      <path d="M 53.515625 70.515625 
L 53.515625 60.890625 
Q 47.90625 63.578125 42.921875 64.890625 
Q 37.9375 66.21875 33.296875 66.21875 
Q 25.25 66.21875 20.875 63.09375 
Q 16.5 59.96875 16.5 54.203125 
Q 16.5 49.359375 19.40625 46.890625 
Q 22.3125 44.4375 30.421875 42.921875 
L 36.375 41.703125 
Q 47.40625 39.59375 52.65625 34.296875 
Q 57.90625 29 57.90625 20.125 
Q 57.90625 9.515625 50.796875 4.046875 
Q 43.703125 -1.421875 29.984375 -1.421875 
Q 24.8125 -1.421875 18.96875 -0.25 
Q 13.140625 0.921875 6.890625 3.21875 
L 6.890625 13.375 
Q 12.890625 10.015625 18.65625 8.296875 
Q 24.421875 6.59375 29.984375 6.59375 
Q 38.421875 6.59375 43.015625 9.90625 
Q 47.609375 13.234375 47.609375 19.390625 
Q 47.609375 24.75 44.3125 27.78125 
Q 41.015625 30.8125 33.5 32.328125 
L 27.484375 33.5 
Q 16.453125 35.6875 11.515625 40.375 
Q 6.59375 45.0625 6.59375 53.421875 
Q 6.59375 63.09375 13.40625 68.65625 
Q 20.21875 74.21875 32.171875 74.21875 
Q 37.3125 74.21875 42.625 73.28125 
Q 47.953125 72.359375 53.515625 70.515625 
z
" id="DejaVuSans-83"/>
      <path d="M 9.421875 54.6875 
L 18.40625 54.6875 
L 18.40625 0 
L 9.421875 0 
z
M 9.421875 75.984375 
L 18.40625 75.984375 
L 18.40625 64.59375 
L 9.421875 64.59375 
z
" id="DejaVuSans-105"/>
      <path d="M 52 44.1875 
Q 55.375 50.25 60.0625 53.125 
Q 64.75 56 71.09375 56 
Q 79.640625 56 84.28125 50.015625 
Q 88.921875 44.046875 88.921875 33.015625 
L 88.921875 0 
L 79.890625 0 
L 79.890625 32.71875 
Q 79.890625 40.578125 77.09375 44.375 
Q 74.3125 48.1875 68.609375 48.1875 
Q 61.625 48.1875 57.5625 43.546875 
Q 53.515625 38.921875 53.515625 30.90625 
L 53.515625 0 
L 44.484375 0 
L 44.484375 32.71875 
Q 44.484375 40.625 41.703125 44.40625 
Q 38.921875 48.1875 33.109375 48.1875 
Q 26.21875 48.1875 22.15625 43.53125 
Q 18.109375 38.875 18.109375 30.90625 
L 18.109375 0 
L 9.078125 0 
L 9.078125 54.6875 
L 18.109375 54.6875 
L 18.109375 46.1875 
Q 21.1875 51.21875 25.484375 53.609375 
Q 29.78125 56 35.6875 56 
Q 41.65625 56 45.828125 52.96875 
Q 50 49.953125 52 44.1875 
z
" id="DejaVuSans-109"/>
      <path d="M 8.5 21.578125 
L 8.5 54.6875 
L 17.484375 54.6875 
L 17.484375 21.921875 
Q 17.484375 14.15625 20.5 10.265625 
Q 23.53125 6.390625 29.59375 6.390625 
Q 36.859375 6.390625 41.078125 11.03125 
Q 45.3125 15.671875 45.3125 23.6875 
L 45.3125 54.6875 
L 54.296875 54.6875 
L 54.296875 0 
L 45.3125 0 
L 45.3125 8.40625 
Q 42.046875 3.421875 37.71875 1 
Q 33.40625 -1.421875 27.6875 -1.421875 
Q 18.265625 -1.421875 13.375 4.4375 
Q 8.5 10.296875 8.5 21.578125 
z
M 31.109375 56 
z
" id="DejaVuSans-117"/>
      <path d="M 9.421875 75.984375 
L 18.40625 75.984375 
L 18.40625 0 
L 9.421875 0 
z
" id="DejaVuSans-108"/>
      <path d="M 18.3125 70.21875 
L 18.3125 54.6875 
L 36.8125 54.6875 
L 36.8125 47.703125 
L 18.3125 47.703125 
L 18.3125 18.015625 
Q 18.3125 11.328125 20.140625 9.421875 
Q 21.96875 7.515625 27.59375 7.515625 
L 36.8125 7.515625 
L 36.8125 0 
L 27.59375 0 
Q 17.1875 0 13.234375 3.875 
Q 9.28125 7.765625 9.28125 18.015625 
L 9.28125 47.703125 
L 2.6875 47.703125 
L 2.6875 54.6875 
L 9.28125 54.6875 
L 9.28125 70.21875 
z
" id="DejaVuSans-116"/>
      <path d="M 30.609375 48.390625 
Q 23.390625 48.390625 19.1875 42.75 
Q 14.984375 37.109375 14.984375 27.296875 
Q 14.984375 17.484375 19.15625 11.84375 
Q 23.34375 6.203125 30.609375 6.203125 
Q 37.796875 6.203125 41.984375 11.859375 
Q 46.1875 17.53125 46.1875 27.296875 
Q 46.1875 37.015625 41.984375 42.703125 
Q 37.796875 48.390625 30.609375 48.390625 
z
M 30.609375 56 
Q 42.328125 56 49.015625 48.375 
Q 55.71875 40.765625 55.71875 27.296875 
Q 55.71875 13.875 49.015625 6.21875 
Q 42.328125 -1.421875 30.609375 -1.421875 
Q 18.84375 -1.421875 12.171875 6.21875 
Q 5.515625 13.875 5.515625 27.296875 
Q 5.515625 40.765625 12.171875 48.375 
Q 18.84375 56 30.609375 56 
z
" id="DejaVuSans-111"/>
      <path d="M 18.109375 8.203125 
L 18.109375 -20.796875 
L 9.078125 -20.796875 
L 9.078125 54.6875 
L 18.109375 54.6875 
L 18.109375 46.390625 
Q 20.953125 51.265625 25.265625 53.625 
Q 29.59375 56 35.59375 56 
Q 45.5625 56 51.78125 48.09375 
Q 58.015625 40.1875 58.015625 27.296875 
Q 58.015625 14.40625 51.78125 6.484375 
Q 45.5625 -1.421875 35.59375 -1.421875 
Q 29.59375 -1.421875 25.265625 0.953125 
Q 20.953125 3.328125 18.109375 8.203125 
z
M 48.6875 27.296875 
Q 48.6875 37.203125 44.609375 42.84375 
Q 40.53125 48.484375 33.40625 48.484375 
Q 26.265625 48.484375 22.1875 42.84375 
Q 18.109375 37.203125 18.109375 27.296875 
Q 18.109375 17.390625 22.1875 11.75 
Q 26.265625 6.109375 33.40625 6.109375 
Q 40.53125 6.109375 44.609375 11.75 
Q 48.6875 17.390625 48.6875 27.296875 
z
" id="DejaVuSans-112"/>
      <path d="M 11.71875 12.40625 
L 22.015625 12.40625 
L 22.015625 4 
L 14.015625 -11.625 
L 7.71875 -11.625 
L 11.71875 4 
z
" id="DejaVuSans-44"/>
      <path d="M 19.671875 34.8125 
L 19.671875 8.109375 
L 35.5 8.109375 
Q 43.453125 8.109375 47.28125 11.40625 
Q 51.125 14.703125 51.125 21.484375 
Q 51.125 28.328125 47.28125 31.5625 
Q 43.453125 34.8125 35.5 34.8125 
z
M 19.671875 64.796875 
L 19.671875 42.828125 
L 34.28125 42.828125 
Q 41.5 42.828125 45.03125 45.53125 
Q 48.578125 48.25 48.578125 53.8125 
Q 48.578125 59.328125 45.03125 62.0625 
Q 41.5 64.796875 34.28125 64.796875 
z
M 9.8125 72.90625 
L 35.015625 72.90625 
Q 46.296875 72.90625 52.390625 68.21875 
Q 58.5 63.53125 58.5 54.890625 
Q 58.5 48.1875 55.375 44.234375 
Q 52.25 40.28125 46.1875 39.3125 
Q 53.46875 37.75 57.5 32.78125 
Q 61.53125 27.828125 61.53125 20.40625 
Q 61.53125 10.640625 54.890625 5.3125 
Q 48.25 0 35.984375 0 
L 9.8125 0 
z
" id="DejaVuSans-66"/>
      <path d="M 44.390625 34.1875 
Q 47.5625 33.109375 50.5625 29.59375 
Q 53.5625 26.078125 56.59375 19.921875 
L 66.609375 0 
L 56 0 
L 46.6875 18.703125 
Q 43.0625 26.03125 39.671875 28.421875 
Q 36.28125 30.8125 30.421875 30.8125 
L 19.671875 30.8125 
L 19.671875 0 
L 9.8125 0 
L 9.8125 72.90625 
L 32.078125 72.90625 
Q 44.578125 72.90625 50.734375 67.671875 
Q 56.890625 62.453125 56.890625 51.90625 
Q 56.890625 45.015625 53.6875 40.46875 
Q 50.484375 35.9375 44.390625 34.1875 
z
M 19.671875 64.796875 
L 19.671875 38.921875 
L 32.078125 38.921875 
Q 39.203125 38.921875 42.84375 42.21875 
Q 46.484375 45.515625 46.484375 51.90625 
Q 46.484375 58.296875 42.84375 61.546875 
Q 39.203125 64.796875 32.078125 64.796875 
z
" id="DejaVuSans-82"/>
      <path d="M 8.015625 75.875 
L 15.828125 75.875 
Q 23.140625 64.359375 26.78125 53.3125 
Q 30.421875 42.28125 30.421875 31.390625 
Q 30.421875 20.453125 26.78125 9.375 
Q 23.140625 -1.703125 15.828125 -13.1875 
L 8.015625 -13.1875 
Q 14.5 -2 17.703125 9.0625 
Q 20.90625 20.125 20.90625 31.390625 
Q 20.90625 42.671875 17.703125 53.65625 
Q 14.5 64.65625 8.015625 75.875 
z
" id="DejaVuSans-41"/>
     </defs>
     <g transform="translate(569.76125 636.395762)scale(0.1 -0.1)">
      <use xlink:href="#DejaVuSans-68"/>
      <use x="77.001953" xlink:href="#DejaVuSans-97"/>
      <use x="138.28125" xlink:href="#DejaVuSans-121"/>
      <use x="197.460938" xlink:href="#DejaVuSans-115"/>
      <use x="249.560547" xlink:href="#DejaVuSans-32"/>
      <use x="281.347656" xlink:href="#DejaVuSans-40"/>
      <use x="320.361328" xlink:href="#DejaVuSans-32"/>
      <use x="352.148438" xlink:href="#DejaVuSans-79"/>
      <use x="430.859375" xlink:href="#DejaVuSans-114"/>
      <use x="471.972656" xlink:href="#DejaVuSans-97"/>
      <use x="533.251953" xlink:href="#DejaVuSans-110"/>
      <use x="596.630859" xlink:href="#DejaVuSans-103"/>
      <use x="660.107422" xlink:href="#DejaVuSans-101"/>
      <use x="721.630859" xlink:href="#DejaVuSans-32"/>
      <use x="753.417969" xlink:href="#DejaVuSans-61"/>
      <use x="837.207031" xlink:href="#DejaVuSans-32"/>
      <use x="868.994141" xlink:href="#DejaVuSans-83"/>
      <use x="932.470703" xlink:href="#DejaVuSans-105"/>
      <use x="960.253906" xlink:href="#DejaVuSans-109"/>
      <use x="1057.666016" xlink:href="#DejaVuSans-117"/>
      <use x="1121.044922" xlink:href="#DejaVuSans-108"/>
      <use x="1148.828125" xlink:href="#DejaVuSans-97"/>
      <use x="1210.107422" xlink:href="#DejaVuSans-116"/>
      <use x="1249.316406" xlink:href="#DejaVuSans-105"/>
      <use x="1277.099609" xlink:href="#DejaVuSans-111"/>
      <use x="1338.28125" xlink:href="#DejaVuSans-110"/>
      <use x="1401.660156" xlink:href="#DejaVuSans-32"/>
      <use x="1433.447266" xlink:href="#DejaVuSans-79"/>
      <use x="1512.158203" xlink:href="#DejaVuSans-117"/>
      <use x="1575.537109" xlink:href="#DejaVuSans-116"/>
      <use x="1614.746094" xlink:href="#DejaVuSans-112"/>
      <use x="1678.222656" xlink:href="#DejaVuSans-117"/>
      <use x="1741.601562" xlink:href="#DejaVuSans-116"/>
      <use x="1780.810547" xlink:href="#DejaVuSans-32"/>
      <use x="1812.597656" xlink:href="#DejaVuSans-44"/>
      <use x="1844.384766" xlink:href="#DejaVuSans-32"/>
      <use x="1876.171875" xlink:href="#DejaVuSans-66"/>
      <use x="1944.775391" xlink:href="#DejaVuSans-108"/>
      <use x="1972.558594" xlink:href="#DejaVuSans-117"/>
      <use x="2035.9375" xlink:href="#DejaVuSans-101"/>
      <use x="2097.460938" xlink:href="#DejaVuSans-61"/>
      <use x="2181.25" xlink:href="#DejaVuSans-32"/>
      <use x="2213.037109" xlink:href="#DejaVuSans-82"/>
      <use x="2282.457031" xlink:href="#DejaVuSans-101"/>
      <use x="2343.980469" xlink:href="#DejaVuSans-97"/>
      <use x="2405.259766" xlink:href="#DejaVuSans-108"/>
      <use x="2433.042969" xlink:href="#DejaVuSans-32"/>
      <use x="2464.830078" xlink:href="#DejaVuSans-68"/>
      <use x="2541.832031" xlink:href="#DejaVuSans-97"/>
      <use x="2603.111328" xlink:href="#DejaVuSans-116"/>
      <use x="2642.320312" xlink:href="#DejaVuSans-97"/>
      <use x="2703.599609" xlink:href="#DejaVuSans-32"/>
      <use x="2735.386719" xlink:href="#DejaVuSans-41"/>
     </g>
    </g>
   </g>
   <g id="matplotlib.axis_2">
    <g id="ytick_1">
     <g id="line2d_8">
      <defs>
       <path d="M 0 0 
L -3.5 0 
" id="mc43a53bee4" style="stroke:#000000;stroke-width:0.8;"/>
      </defs>
      <g>
       <use style="stroke:#000000;stroke-width:0.8;" x="172.8" xlink:href="#mc43a53bee4" y="608.1192"/>
      </g>
     </g>
     <g id="text_9">
      <!-- 0 -->
      <g transform="translate(159.4375 611.918419)scale(0.1 -0.1)">
       <use xlink:href="#DejaVuSans-48"/>
      </g>
     </g>
    </g>
    <g id="ytick_2">
     <g id="line2d_9">
      <g>
       <use style="stroke:#000000;stroke-width:0.8;" x="172.8" xlink:href="#mc43a53bee4" y="529.753232"/>
      </g>
     </g>
     <g id="text_10">
      <!-- 500 -->
      <g transform="translate(146.7125 533.552451)scale(0.1 -0.1)">
       <use xlink:href="#DejaVuSans-53"/>
       <use x="63.623047" xlink:href="#DejaVuSans-48"/>
       <use x="127.246094" xlink:href="#DejaVuSans-48"/>
      </g>
     </g>
    </g>
    <g id="ytick_3">
     <g id="line2d_10">
      <g>
       <use style="stroke:#000000;stroke-width:0.8;" x="172.8" xlink:href="#mc43a53bee4" y="451.387264"/>
      </g>
     </g>
     <g id="text_11">
      <!-- 1000 -->
      <g transform="translate(140.35 455.186483)scale(0.1 -0.1)">
       <use xlink:href="#DejaVuSans-49"/>
       <use x="63.623047" xlink:href="#DejaVuSans-48"/>
       <use x="127.246094" xlink:href="#DejaVuSans-48"/>
       <use x="190.869141" xlink:href="#DejaVuSans-48"/>
      </g>
     </g>
    </g>
    <g id="ytick_4">
     <g id="line2d_11">
      <g>
       <use style="stroke:#000000;stroke-width:0.8;" x="172.8" xlink:href="#mc43a53bee4" y="373.021296"/>
      </g>
     </g>
     <g id="text_12">
      <!-- 1500 -->
      <g transform="translate(140.35 376.820514)scale(0.1 -0.1)">
       <use xlink:href="#DejaVuSans-49"/>
       <use x="63.623047" xlink:href="#DejaVuSans-53"/>
       <use x="127.246094" xlink:href="#DejaVuSans-48"/>
       <use x="190.869141" xlink:href="#DejaVuSans-48"/>
      </g>
     </g>
    </g>
    <g id="ytick_5">
     <g id="line2d_12">
      <g>
       <use style="stroke:#000000;stroke-width:0.8;" x="172.8" xlink:href="#mc43a53bee4" y="294.655328"/>
      </g>
     </g>
     <g id="text_13">
      <!-- 2000 -->
      <g transform="translate(140.35 298.454546)scale(0.1 -0.1)">
       <use xlink:href="#DejaVuSans-50"/>
       <use x="63.623047" xlink:href="#DejaVuSans-48"/>
       <use x="127.246094" xlink:href="#DejaVuSans-48"/>
       <use x="190.869141" xlink:href="#DejaVuSans-48"/>
      </g>
     </g>
    </g>
    <g id="ytick_6">
     <g id="line2d_13">
      <g>
       <use style="stroke:#000000;stroke-width:0.8;" x="172.8" xlink:href="#mc43a53bee4" y="216.28936"/>
      </g>
     </g>
     <g id="text_14">
      <!-- 2500 -->
      <g transform="translate(140.35 220.088578)scale(0.1 -0.1)">
       <use xlink:href="#DejaVuSans-50"/>
       <use x="63.623047" xlink:href="#DejaVuSans-53"/>
       <use x="127.246094" xlink:href="#DejaVuSans-48"/>
       <use x="190.869141" xlink:href="#DejaVuSans-48"/>
      </g>
     </g>
    </g>
    <g id="ytick_7">
     <g id="line2d_14">
      <g>
       <use style="stroke:#000000;stroke-width:0.8;" x="172.8" xlink:href="#mc43a53bee4" y="137.923391"/>
      </g>
     </g>
     <g id="text_15">
      <!-- 3000 -->
      <g transform="translate(140.35 141.72261)scale(0.1 -0.1)">
       <use xlink:href="#DejaVuSans-51"/>
       <use x="63.623047" xlink:href="#DejaVuSans-48"/>
       <use x="127.246094" xlink:href="#DejaVuSans-48"/>
       <use x="190.869141" xlink:href="#DejaVuSans-48"/>
      </g>
     </g>
    </g>
    <g id="text_16">
     <!-- Daily New Cases -->
     <defs>
      <path d="M 9.8125 72.90625 
L 23.09375 72.90625 
L 55.421875 11.921875 
L 55.421875 72.90625 
L 64.984375 72.90625 
L 64.984375 0 
L 51.703125 0 
L 19.390625 60.984375 
L 19.390625 0 
L 9.8125 0 
z
" id="DejaVuSans-78"/>
      <path d="M 4.203125 54.6875 
L 13.1875 54.6875 
L 24.421875 12.015625 
L 35.59375 54.6875 
L 46.1875 54.6875 
L 57.421875 12.015625 
L 68.609375 54.6875 
L 77.59375 54.6875 
L 63.28125 0 
L 52.6875 0 
L 40.921875 44.828125 
L 29.109375 0 
L 18.5 0 
z
" id="DejaVuSans-119"/>
      <path d="M 64.40625 67.28125 
L 64.40625 56.890625 
Q 59.421875 61.53125 53.78125 63.8125 
Q 48.140625 66.109375 41.796875 66.109375 
Q 29.296875 66.109375 22.65625 58.46875 
Q 16.015625 50.828125 16.015625 36.375 
Q 16.015625 21.96875 22.65625 14.328125 
Q 29.296875 6.6875 41.796875 6.6875 
Q 48.140625 6.6875 53.78125 8.984375 
Q 59.421875 11.28125 64.40625 15.921875 
L 64.40625 5.609375 
Q 59.234375 2.09375 53.4375 0.328125 
Q 47.65625 -1.421875 41.21875 -1.421875 
Q 24.65625 -1.421875 15.125 8.703125 
Q 5.609375 18.84375 5.609375 36.375 
Q 5.609375 53.953125 15.125 64.078125 
Q 24.65625 74.21875 41.21875 74.21875 
Q 47.75 74.21875 53.53125 72.484375 
Q 59.328125 70.75 64.40625 67.28125 
z
" id="DejaVuSans-67"/>
     </defs>
     <g transform="translate(134.270312 386.633744)rotate(-90)scale(0.1 -0.1)">
      <use xlink:href="#DejaVuSans-68"/>
      <use x="77.001953" xlink:href="#DejaVuSans-97"/>
      <use x="138.28125" xlink:href="#DejaVuSans-105"/>
      <use x="166.064453" xlink:href="#DejaVuSans-108"/>
      <use x="193.847656" xlink:href="#DejaVuSans-121"/>
      <use x="253.027344" xlink:href="#DejaVuSans-32"/>
      <use x="284.814453" xlink:href="#DejaVuSans-78"/>
      <use x="359.619141" xlink:href="#DejaVuSans-101"/>
      <use x="421.142578" xlink:href="#DejaVuSans-119"/>
      <use x="502.929688" xlink:href="#DejaVuSans-32"/>
      <use x="534.716797" xlink:href="#DejaVuSans-67"/>
      <use x="604.541016" xlink:href="#DejaVuSans-97"/>
      <use x="665.820312" xlink:href="#DejaVuSans-115"/>
      <use x="717.919922" xlink:href="#DejaVuSans-101"/>
      <use x="779.443359" xlink:href="#DejaVuSans-115"/>
     </g>
    </g>
   </g>
   <g id="patch_123">
    <path d="M 172.8 608.1192 
L 172.8 81.9936 
" style="fill:none;stroke:#000000;stroke-linecap:square;stroke-linejoin:miter;stroke-width:0.8;"/>
   </g>
   <g id="patch_124">
    <path d="M 1244.16 608.1192 
L 1244.16 81.9936 
" style="fill:none;stroke:#000000;stroke-linecap:square;stroke-linejoin:miter;stroke-width:0.8;"/>
   </g>
   <g id="patch_125">
    <path d="M 172.8 608.1192 
L 1244.16 608.1192 
" style="fill:none;stroke:#000000;stroke-linecap:square;stroke-linejoin:miter;stroke-width:0.8;"/>
   </g>
   <g id="patch_126">
    <path d="M 172.8 81.9936 
L 1244.16 81.9936 
" style="fill:none;stroke:#000000;stroke-linecap:square;stroke-linejoin:miter;stroke-width:0.8;"/>
   </g>
  </g>
 </g>
 <defs>
  <clipPath id="p70f099d989">
   <rect height="526.1256" width="1071.36" x="172.8" y="81.9936"/>
  </clipPath>
 </defs>
</svg>
